<svg xmlns="http://www.w3.org/2000/svg" viewBox="0 0 220.03 231.01"><defs><style>.cls-1{fill:#bec0c2;}.cls-2{fill:#0465ac;}.cls-3{fill:#ef6b25;}</style></defs><g id="Calque_2" data-name="Calque 2"><g id="Calque_1-2" data-name="Calque 1"><path class="cls-1" d="M154.09,1.48c-3.3-1.21-8.14.13-14.52,4a15.84,15.84,0,0,0-2.13-2c-.49-.37-1-.73-1.53-1.07a16.13,16.13,0,0,0-20.44,3.06c-.82,0-1.65,0-2.47,0a8.64,8.64,0,0,0-2.82-2.79,9,9,0,0,0-6.77-1.11,9.19,9.19,0,0,0-5.61,4,8.31,8.31,0,0,0-.52,1C41.69,13.05,0,48.76,0,90.12c0,32.5,26.49,61.7,70.88,78.1a9.17,9.17,0,0,0,3.17.53c5.54,0,13.76-4.19,24.45-12.46h11C170.47,156.29,220,120,220,75.47c0-31.17-24.65-58.83-65.94-74"></path><path class="cls-2" d="M135.89,5.11a14.75,14.75,0,0,0-1.28-.91A13.44,13.44,0,0,0,116.3,8.49,12.25,12.25,0,0,0,115,11.22l0,.08a9.09,9.09,0,0,1-.46,1.7,13,13,0,0,0,3.93,12.05,12.24,12.24,0,0,0,2,1.53,13.46,13.46,0,0,0,18.33-4.27,13.22,13.22,0,0,0,2-6.12,13,13,0,0,0-4.88-11.08"></path><path class="cls-2" d="M108.12,20.68a10,10,0,0,0-13.73,3.21,9.73,9.73,0,0,0,3.07,13.56,10.06,10.06,0,0,0,9.75.41,10.17,10.17,0,0,0,4-3.61,9.6,9.6,0,0,0,1-2.12,9.77,9.77,0,0,0-4.11-11.45"></path><path class="cls-2" d="M102.08,15a6.29,6.29,0,0,0,8.58-2,6.47,6.47,0,0,0,.82-1.94,6.4,6.4,0,0,0,0-2.72,6.12,6.12,0,0,0-2.76-3.81,6.28,6.28,0,0,0-8.59,2,6.11,6.11,0,0,0-.75,4.79A6,6,0,0,0,102.08,15"></path><path class="cls-3" d="M153.41,3.58c-2.57-1-7.07.66-12.33,3.85a15.43,15.43,0,0,1-.29,16.14,15.9,15.9,0,0,1-21.68,5.06,15,15,0,0,1-1.38-1q-1.59,1.83-3.06,3.68a72.24,72.24,0,0,0-5.49,7.87c-2.81,4.76-4.51,9.27-4.41,13C105.24,69.86,133.22,76,133.22,76c18.34,4.47,19.52,13.17,19.52,18.58s-4,19.84-23.52,36.21A101.64,101.64,0,0,1,110,143.24a141.4,141.4,0,0,1-26.1,10.32c4.95.34,8.48.36,13.59.39,3.94,0,8,0,12.09,0C169.42,154,218,118.79,218,75.42c0-32.06-27.06-58.09-64.54-71.84"></path><path class="cls-2" d="M114.65,77.38c-7.13-3.25-19.18-8.3-20.7-23.51-.44-4.37,1.06-9.18,3.53-13.95a12.37,12.37,0,0,1-1.19-.63,11.87,11.87,0,0,1-3.75-16.54,12.18,12.18,0,0,1,7.64-5.41l.65-.11s-.1-.05-.14-.08A8.54,8.54,0,0,1,96.63,8.9C43,15.54,2.08,49.38,2.08,90.16c0,34.15,29.44,61.16,69.51,76,4.46,1.65,12.39-2.44,21.85-9.39-14-.25-16.85-2.79-16.85-2.79,34.9-13,48-25.45,49.46-27,11.38-9.71,16.32-20.06,17-24.9,2.11-14.11-20.23-20.92-28.45-24.69"></path><path class="cls-2" d="M38.8,230.13a11.56,11.56,0,0,1-4.57.88,11.89,11.89,0,0,1-9.3-3.93,15.21,15.21,0,0,1-3.53-10.42,15.54,15.54,0,0,1,3.45-10.59,11.32,11.32,0,0,1,9.54-3.85,14.22,14.22,0,0,1,8.42,2.49,9.71,9.71,0,0,1,3.53,7.3H42.81a2.89,2.89,0,0,1-2.49-1.45,5.92,5.92,0,0,0-5.77-3.36q-7.21,0-7.3,9.18t7.62,9.74a6.4,6.4,0,0,0,4.49-1.6,7.38,7.38,0,0,0,2.25-4.33H38.24a2.9,2.9,0,0,1-2.89-2.89v-1.76H46.74v15.07H45.3a3.17,3.17,0,0,1-1.89-.6,2.05,2.05,0,0,1-.92-1.56l-.24-1.37A10.39,10.39,0,0,1,38.8,230.13Z"></path><path class="cls-2" d="M49.47,205.67a2.92,2.92,0,0,1,.84-2.08,2.7,2.7,0,0,1,2-.88H62.94q4.49,0,6.81,1.92c1.45,1.28,2.17,3.29,2.17,6a7.62,7.62,0,0,1-1,4.25,5.23,5.23,0,0,1-3.12,2.33,5.29,5.29,0,0,1,2.64,1.92,11.19,11.19,0,0,1,.89,4.17l.24,5.46a2.25,2.25,0,0,0,.88,1.84H66.14a5,5,0,0,1-.48-1.68,41.69,41.69,0,0,1-.24-4.73,6,6,0,0,0-1-3.53,4.52,4.52,0,0,0-3.21-.88H55.16v10.82H49.47Zm12.42,9.22a5.44,5.44,0,0,0,3.29-.88,3.79,3.79,0,0,0,1-2.8,3.54,3.54,0,0,0-1-2.73,4,4,0,0,0-3-1H55.16v7.37Z"></path><path class="cls-2" d="M91.64,202.71l10,27.9h-6l-1.84-5.69H83l-1.84,5.69H75l9.31-26.06a2.59,2.59,0,0,1,2.72-1.84Zm-7.13,17.48H92.2l-3.85-11.87Z"></path><path class="cls-2" d="M104.55,205.67a2.92,2.92,0,0,1,.84-2.08,2.74,2.74,0,0,1,2-.88h3l11.38,19.16V202.71h5.62v27.9h-5.94l-11.39-19.16v19.16h-5.61Z"></path><path class="cls-2" d="M130.53,205.67c0-2,1-3,2.89-3h2.81v27.9h-5.7Z"></path><path class="cls-2" d="M147.37,207.68h-8.26v-2a2.92,2.92,0,0,1,.84-2.08,2.74,2.74,0,0,1,2.05-.88h19.32v5h-8.26v22.93h-5.69Z"></path><path class="cls-2" d="M164.13,205.67a2.63,2.63,0,0,1,2.89-3h17.32v4.81h-14.6v6h10.91v1.85q.07,2.88-3,2.88h-7.94v7.22h14.6v5.13H164.13Z"></path><path class="cls-2" d="M195.48,216.34l-8.74-13.63h6.58l5.69,9.78,4.89-8.34a2.55,2.55,0,0,1,2.49-1.44h5l-8.74,13.63,8.74,14.27H204.7l-5.69-9.7-5.69,9.7h-6.58Z"></path><path class="cls-3" d="M56,174a5.08,5.08,0,0,1,3.74-1.54V184.3a2.59,2.59,0,0,0,.76,1.88,2.64,2.64,0,0,0,3.73,0A2.57,2.57,0,0,0,65,184.3V176a5.29,5.29,0,0,1,5.27-5.25v13.12A3.11,3.11,0,0,0,73.36,187h2.91v5.27H73.36a8,8,0,0,1-5.32-1.9,6.73,6.73,0,0,1-4.8,1.9H61.48a6.74,6.74,0,0,1-4.39-1.52,6.76,6.76,0,0,1-4.39,1.52H50.93a7,7,0,0,1-2.55-.45A13.81,13.81,0,0,1,44.94,197a14.21,14.21,0,0,1-10.45,4A14,14,0,0,1,25.18,197a14.05,14.05,0,0,1,1-21l.74.95a5.26,5.26,0,0,1,.4,5.78A8.79,8.79,0,0,0,28.72,193a8.76,8.76,0,0,0,12.45.28A8.4,8.4,0,0,0,43.89,187v-7.59a5.27,5.27,0,0,1,5.28-5.27V184.3a2.65,2.65,0,0,0,4.52,1.88,2.6,2.6,0,0,0,.77-1.88v-6.61A5.1,5.1,0,0,1,56,174Zm47,18.26H75.29V187H103a3.72,3.72,0,1,0,0-7.44H78.35v-3.2A4.4,4.4,0,0,1,80,172.9L98,158.27a5.19,5.19,0,0,1,1.16,3.86,5.31,5.31,0,0,1-1.92,3.56l-10.55,8.54H103a9,9,0,0,1,9,9,9,9,0,0,1-.71,3.58,5.17,5.17,0,0,0,1.19.14h1.77v5.27h-2.65a8.33,8.33,0,0,1-4.27-1.07,8.7,8.7,0,0,1-4.32,1.07Zm22.69-19.92a5.07,5.07,0,0,1,3.73-1.55v13.12a3.11,3.11,0,0,0,3.08,3.08h.86v5.27h-.86a8.09,8.09,0,0,1-5.73-2.26,8,8,0,0,1-5.7,2.26h-7.78V187h7.78a3.11,3.11,0,0,0,3.08-3.08v-7.82A5.1,5.1,0,0,1,125.71,172.3Zm-6.7-4.84a3.07,3.07,0,0,1-4.34,0,3.05,3.05,0,0,1,0-4.35,3.07,3.07,0,1,1,4.34,4.35Zm6.91,0a3.08,3.08,0,1,1,.9-2.18A3,3,0,0,1,125.92,167.46Zm9.86,33.4a3,3,0,0,1-4.34,0,3,3,0,0,1,0-4.34,3.07,3.07,0,1,1,4.34,4.34Zm7.82-28.56a5.07,5.07,0,0,1,3.73-1.55v13.12a3.11,3.11,0,0,0,3.08,3.08h.86v5.27h-.86a8.09,8.09,0,0,1-5.73-2.26,8,8,0,0,1-5.7,2.26h-6.82V187H139a3.11,3.11,0,0,0,3.08-3.08v-7.82A5.1,5.1,0,0,1,143.6,172.3Zm-.91,28.56a3.08,3.08,0,1,1,0-4.34,3.07,3.07,0,0,1,0,4.34Zm15.13-24.81a5.29,5.29,0,0,1,5.27-5.3v13.12a8.33,8.33,0,0,1-8.35,8.35H150.3V187h4.44a3.11,3.11,0,0,0,3.08-3.08Zm-.58-8.59a3.08,3.08,0,1,1,0-4.35,3.1,3.1,0,0,1,0,4.35Zm15.91-10.77a5.31,5.31,0,0,0-5.27,5.3v30.23h5.27ZM183.58,197a14.21,14.21,0,0,1-10.45,4V199.1q0-2.58,2.86-3.65a9,9,0,0,0,4.72-3.14,8.51,8.51,0,0,0,1.82-5.38V176a5.26,5.26,0,0,1,5.27-5.27v13.12a3.09,3.09,0,0,0,3.08,3.08h.6v5.27h-.6a8,8,0,0,1-3.74-.86,13.36,13.36,0,0,1-3.56,5.64Zm22.28-11.86a8.28,8.28,0,0,1-2.76.45,8.33,8.33,0,0,1-8.33-8.33,11.92,11.92,0,0,1,1.87-6.45,13.35,13.35,0,0,1,5.57-4.83,20.5,20.5,0,0,1,9.19-1.84v19.73a8.35,8.35,0,0,1-8.35,8.35H190.52V187h12.53a3,3,0,0,0,2.19-.91,2.85,2.85,0,0,0,.62-.9Zm-3.63-23.89a3.08,3.08,0,1,1,0-4.34,3.09,3.09,0,0,1,0,4.34Zm-.6,11.71a7.16,7.16,0,0,0-1.59,4.3,3,3,0,0,0,6.09,0v-7.13A7.54,7.54,0,0,0,201.63,173Zm7.5-11.71a3.05,3.05,0,0,1-4.35,0,3.07,3.07,0,0,1,0-4.34,3.07,3.07,0,1,1,4.35,4.34Z"></path><path class="cls-3" d="M206.65,153.31a3.05,3.05,0,1,1-3.05-3.06,3,3,0,0,1,3.05,3.06"></path></g></g></svg>