<?xml version="1.0" standalone="no"?>
<!DOCTYPE svg PUBLIC "-//W3C//DTD SVG 20010904//EN"
 "http://www.w3.org/TR/2001/REC-SVG-20010904/DTD/svg10.dtd">
<svg version="1.0" xmlns="http://www.w3.org/2000/svg"
 width="270.000000pt" height="65.000000pt" viewBox="0 0 270.000000 65.000000"
 preserveAspectRatio="xMidYMid meet">
<metadata>
Created by potrace 1.10, written by Peter Selinger 2001-2011
</metadata>
<g transform="translate(0.000000,65.000000) scale(0.100000,-0.100000)"
fill="#9fc5e8" stroke="none">
<path d="M250 586 c0 -13 -6 -27 -12 -29 -10 -4 -10 -8 1 -15 11 -8 5 -18 -28
-47 l-41 -37 0 -193 c0 -232 -4 -225 113 -222 42 1 77 4 77 7 0 13 -63 29 -81
20 -25 -14 -65 -12 -77 3 -5 6 -12 29 -14 50 l-4 37 88 0 c52 0 88 4 88 10 0
6 -36 10 -87 10 l-88 0 0 95 0 95 108 0 c65 0 107 4 107 10 0 6 -43 10 -109
10 l-110 0 9 29 c13 45 27 66 54 81 14 7 26 19 26 27 0 8 12 13 30 13 20 0 30
-5 30 -15 0 -8 13 -21 29 -30 18 -9 35 -29 42 -50 14 -36 29 -47 29 -19 0 17
-30 74 -40 74 -3 0 -14 7 -25 16 -17 13 -18 16 -5 25 11 8 12 12 3 16 -7 2
-13 16 -13 29 0 22 -4 24 -50 24 -46 0 -50 -2 -50 -24z m80 -11 c0 -10 -10
-15 -30 -15 -20 0 -30 5 -30 15 0 10 10 15 30 15 20 0 30 -5 30 -15z"/>
<path d="M1234 548 l-19 -23 23 19 c12 11 22 21 22 23 0 8 -8 2 -26 -19z"/>
<path d="M1800 478 c0 -60 4 -98 12 -106 16 -16 51 -16 45 1 -2 6 -10 11 -16
9 -7 -1 -11 21 -12 65 -2 105 -3 116 -16 120 -10 4 -13 -19 -13 -89z"/>
<path d="M800 460 c0 -60 4 -100 10 -100 6 0 10 19 10 43 0 24 3 47 6 50 4 3
24 -16 46 -43 37 -47 58 -62 58 -41 0 5 -18 31 -39 57 l-40 49 37 37 c51 54
31 61 -23 8 l-45 -44 0 42 c0 23 -4 42 -10 42 -6 0 -10 -40 -10 -100z"/>
<path d="M1154 546 c-10 -8 -17 -16 -14 -19 3 -2 14 4 24 14 23 22 18 25 -10
5z"/>
<path d="M1620 459 c0 -76 3 -100 13 -96 7 2 12 19 11 41 -1 36 -1 36 41 36
66 0 95 47 59 98 -12 18 -25 22 -70 22 l-54 0 0 -101z m98 72 c6 0 12 -14 12
-31 0 -23 -5 -31 -24 -36 -44 -11 -59 -2 -61 38 -3 39 -4 38 73 29z"/>
<path d="M2020 550 c0 -5 5 -10 11 -10 5 0 7 5 4 10 -3 6 -8 10 -11 10 -2 0
-4 -4 -4 -10z"/>
<path d="M2146 552 c-3 -5 1 -9 9 -9 8 0 12 4 9 9 -3 4 -7 8 -9 8 -2 0 -6 -4
-9 -8z"/>
<path d="M2348 553 c7 -3 16 -2 19 1 4 3 -2 6 -13 5 -11 0 -14 -3 -6 -6z"/>
<path d="M1366 533 c-6 -14 -5 -15 5 -6 7 7 10 15 7 18 -3 3 -9 -2 -12 -12z"/>
<path d="M2202 536 c7 -8 15 -12 17 -11 5 6 -10 25 -20 25 -5 0 -4 -6 3 -14z"/>
<path d="M2066 528 c3 -5 10 -6 15 -3 13 9 11 12 -6 12 -8 0 -12 -4 -9 -9z"/>
<path d="M2280 525 c0 -8 -7 -15 -16 -15 -9 0 -14 -6 -11 -12 2 -7 10 -12 16
-10 7 1 11 -17 11 -51 0 -58 12 -77 48 -77 24 0 27 24 4 26 -7 1 -16 2 -22 3
-5 0 -10 23 -10 51 0 45 2 50 21 47 12 -1 24 4 26 11 3 7 -5 12 -21 12 -16 0
-26 6 -26 15 0 8 -4 15 -10 15 -5 0 -10 -7 -10 -15z"/>
<path d="M933 515 c0 -8 4 -12 9 -9 5 3 6 10 3 15 -9 13 -12 11 -12 -6z"/>
<path d="M519 503 c-1 -5 -1 -17 0 -29 1 -11 -8 -32 -19 -47 -16 -21 -18 -27
-7 -27 19 0 47 43 47 70 0 15 5 20 18 18 10 -2 16 -11 14 -21 -2 -9 9 -33 24
-52 l26 -35 -41 0 c-22 0 -41 -4 -41 -10 0 -5 21 -10 46 -10 27 0 43 -4 39
-10 -3 -5 -24 -10 -46 -10 -24 0 -38 -4 -34 -10 3 -5 22 -10 41 -10 19 0 34
-4 34 -10 0 -5 -18 -10 -41 -10 -25 0 -38 -4 -34 -11 4 -5 20 -9 37 -7 28 3
30 1 34 -34 3 -37 2 -38 -31 -38 -19 0 -37 -4 -40 -10 -4 -6 12 -10 39 -10 25
0 46 -4 46 -10 0 -5 -21 -10 -46 -10 -27 0 -43 -4 -39 -10 3 -5 24 -10 46 -10
24 0 38 -4 34 -10 -3 -5 -24 -10 -46 -10 -24 0 -38 -4 -34 -10 3 -5 22 -10 41
-10 29 0 34 -3 34 -24 0 -29 -17 -37 -48 -23 -25 11 -41 2 -25 -14 6 -6 28 -9
49 -7 l39 3 2 169 c2 159 1 172 -19 205 -12 19 -22 46 -22 60 -1 22 -6 26 -38
28 -21 2 -38 0 -39 -4z"/>
<path d="M985 497 c-27 -21 -11 -39 21 -22 25 13 60 10 70 -6 3 -5 -11 -9 -31
-9 -51 0 -75 -15 -75 -48 0 -36 17 -52 55 -52 17 0 36 5 43 12 9 9 12 9 12 0
0 -7 5 -12 10 -12 6 0 10 28 10 65 0 53 -3 66 -19 75 -27 14 -74 13 -96 -3z
m87 -99 c-5 -5 -25 -11 -43 -11 -28 -2 -35 2 -37 20 -3 19 2 22 40 25 44 3 62
-12 40 -34z"/>
<path d="M1160 434 c0 -56 3 -75 13 -72 7 3 12 24 13 56 1 57 2 61 32 67 28 5
44 -17 42 -57 -3 -52 -1 -68 10 -68 6 0 10 25 10 55 0 58 15 77 51 68 16 -5
19 -15 19 -64 0 -46 3 -59 15 -59 21 0 21 98 -1 128 -15 22 -67 31 -78 13 -4
-5 -19 -5 -36 2 -23 9 -35 9 -50 -1 -12 -7 -20 -8 -20 -2 0 5 -4 10 -10 10 -6
0 -10 -32 -10 -76z"/>
<path d="M1448 499 c-14 -7 -18 -23 -18 -62 0 -64 11 -77 67 -77 34 0 46 5 59
25 20 31 13 94 -13 112 -20 15 -71 16 -95 2z m92 -63 c0 -49 -18 -64 -66 -52
-21 6 -24 12 -24 51 l0 45 45 0 45 0 0 -44z"/>
<path d="M1915 497 c-27 -20 -10 -41 18 -23 24 15 53 14 70 -3 8 -8 0 -11 -27
-11 -52 0 -76 -15 -76 -48 0 -36 17 -52 55 -52 17 0 36 5 43 12 9 9 12 9 12 0
0 -7 5 -12 10 -12 6 0 10 28 10 65 0 53 -3 66 -19 75 -27 14 -74 13 -96 -3z
m93 -84 c-3 -19 -51 -38 -73 -29 -8 3 -15 15 -15 26 0 17 6 20 46 20 37 0 45
-3 42 -17z"/>
<path d="M2090 491 c-5 -11 -10 -24 -10 -30 0 -22 33 -41 71 -41 33 0 40 -3
37 -17 -5 -25 -65 -30 -82 -7 -10 12 -15 14 -20 5 -14 -22 15 -41 63 -41 52 0
71 13 71 47 0 27 -27 43 -75 43 -29 0 -36 4 -33 17 3 17 65 26 75 11 7 -13 23
-9 23 6 0 32 -103 38 -120 7z"/>
<path d="M250 480 c0 -5 7 -10 15 -10 8 0 15 5 15 10 0 6 -7 10 -15 10 -8 0
-15 -4 -15 -10z"/>
<path d="M212 435 c-9 -19 -9 -25 1 -25 6 0 17 11 24 25 9 19 8 25 -1 25 -7 0
-18 -11 -24 -25z"/>
<path d="M330 430 c0 -5 5 -10 11 -10 5 0 7 5 4 10 -3 6 -8 10 -11 10 -2 0 -4
-4 -4 -10z"/>
<path d="M741 394 c0 -11 3 -14 6 -6 3 7 2 16 -1 19 -3 4 -6 -2 -5 -13z"/>
<path d="M420 385 c-6 -8 -8 -19 -4 -26 4 -7 -2 -19 -15 -28 -21 -16 -22 -25
-22 -141 0 -69 0 -131 0 -138 1 -10 20 -12 74 -10 l72 3 2 138 c1 126 -1 138
-18 148 -10 5 -19 18 -19 27 0 38 -46 56 -70 27z m50 -15 c0 -5 -9 -10 -20
-10 -11 0 -20 5 -20 10 0 6 9 10 20 10 11 0 20 -4 20 -10z m18 -49 c12 -11 22
-30 22 -45 0 -24 -3 -26 -45 -26 -57 0 -59 -18 -3 -22 31 -2 44 -8 46 -20 3
-15 -4 -18 -42 -18 -25 0 -46 -4 -46 -10 0 -5 21 -10 46 -10 38 0 45 -3 42
-18 -2 -12 -15 -18 -46 -20 -56 -4 -54 -22 3 -22 41 0 45 -2 45 -25 0 -26 -3
-26 -107 -25 -11 0 -11 31 -2 51 5 9 5 19 2 23 -10 9 -11 86 -2 92 4 2 2 18
-4 34 -10 27 -9 33 13 54 30 30 48 31 78 7z"/>
<path d="M412 286 c1 -10 8 -17 13 -17 15 1 12 24 -3 29 -9 3 -13 -2 -10 -12z"/>
<path d="M1215 371 c-3 -5 -2 -12 3 -15 5 -3 9 1 9 9 0 17 -3 19 -12 6z"/>
<path d="M2253 347 c0 -8 6 -14 14 -14 9 0 10 4 2 14 -6 7 -12 13 -14 13 -1 0
-2 -6 -2 -13z"/>
<path d="M200 340 c0 -5 7 -10 15 -10 8 0 15 5 15 10 0 6 -7 10 -15 10 -8 0
-15 -4 -15 -10z"/>
<path d="M204 270 c0 -26 5 -40 13 -40 8 0 13 14 13 40 0 26 -4 40 -13 40 -9
0 -13 -13 -13 -40z"/>
<path d="M900 280 c99 -10 1257 -10 1340 0 36 4 -268 7 -675 7 -407 0 -706 -3
-665 -7z"/>
<path d="M1030 155 l0 -55 38 1 c30 2 32 3 10 6 -35 5 -39 40 -5 46 l22 4 -22
2 c-35 2 -31 39 5 44 22 3 20 4 -10 6 l-38 1 0 -55z"/>
<path d="M1240 154 l0 -55 33 3 c29 3 32 6 32 38 0 31 -3 35 -27 38 -19 2 -25
8 -21 18 3 8 0 14 -6 14 -7 0 -11 -22 -11 -56z m50 -14 c0 -20 -5 -30 -15 -30
-10 0 -15 10 -15 30 0 20 5 30 15 30 10 0 15 -10 15 -30z"/>
<path d="M1411 158 c0 -32 2 -58 7 -58 4 0 6 19 4 43 -5 70 -10 76 -11 15z"/>
<path d="M1448 168 c5 -71 10 -77 11 -15 0 31 -2 57 -7 57 -4 0 -6 -19 -4 -42z"/>
<path d="M1760 155 l0 -55 38 1 c28 2 31 3 11 6 -36 6 -47 43 -13 43 13 0 24
4 24 9 0 4 -11 6 -24 4 -21 -4 -24 -2 -19 15 3 13 15 22 32 25 20 3 17 4 -11
6 l-38 1 0 -55z"/>
<path d="M1960 156 c0 -33 4 -56 11 -56 6 0 8 9 4 20 -5 17 -2 20 25 20 29 0
31 2 28 33 -3 28 -7 32 -35 35 l-33 3 0 -55z m58 17 c3 -19 -1 -23 -22 -23
-21 0 -26 5 -26 26 0 21 4 25 23 22 14 -2 23 -11 25 -25z"/>
<path d="M2050 155 c0 -30 5 -55 10 -55 6 0 10 25 10 55 0 30 -4 55 -10 55 -5
0 -10 -25 -10 -55z"/>
<path d="M2130 206 c0 -2 7 -7 16 -10 8 -3 12 -2 9 4 -6 10 -25 14 -25 6z"/>
<path d="M2290 206 c0 -2 9 -6 20 -9 11 -3 18 -1 14 4 -5 9 -34 13 -34 5z"/>
<path d="M2248 189 c-2 -6 -2 -28 0 -50 3 -28 9 -39 21 -38 10 0 11 2 4 6 -15
5 -18 60 -4 65 5 2 3 8 -4 15 -9 8 -15 9 -17 2z"/>
<path d="M1110 141 c0 -23 5 -41 10 -41 6 0 10 6 9 13 -4 35 2 57 17 57 13 0
15 -8 12 -35 -2 -19 0 -35 4 -35 4 0 8 16 8 35 0 24 5 35 15 35 10 0 15 -11
15 -35 0 -19 5 -35 11 -35 6 0 9 16 7 38 l-3 37 -52 3 -53 3 0 -40z"/>
<path d="M1330 172 c0 -6 9 -8 20 -5 17 5 20 0 20 -26 0 -21 -5 -31 -15 -31
-18 0 -20 16 -2 24 6 3 3 5 -8 3 -33 -4 -24 -32 11 -35 30 -3 31 -2 30 35 -1
34 -4 38 -28 41 -16 2 -28 -1 -28 -6z"/>
<path d="M1485 170 c-4 -7 3 -8 20 -4 21 5 27 4 23 -7 -3 -8 -15 -15 -27 -17
-34 -5 -23 -36 14 -40 30 -3 31 -2 27 38 -4 34 -7 40 -27 40 -13 0 -27 -5 -30
-10z m45 -45 c0 -8 -9 -15 -20 -15 -25 0 -26 17 -2 23 9 3 18 5 20 6 1 0 2 -6
2 -14z"/>
<path d="M1564 165 c-4 -8 -3 -26 0 -40 5 -19 13 -25 34 -26 20 -1 22 -2 7 -6
-35 -9 -43 -25 -10 -21 29 3 30 5 33 56 l3 52 -31 0 c-18 0 -33 -6 -36 -15z
m49 -17 c7 -26 1 -38 -19 -38 -9 0 -14 11 -14 30 0 35 25 41 33 8z"/>
<path d="M1652 143 c3 -33 7 -38 31 -41 21 -3 27 1 27 15 0 14 -2 15 -9 4 -5
-8 -16 -11 -25 -8 -26 10 -18 27 13 27 24 0 28 3 24 20 -4 14 -14 20 -35 20
-28 0 -29 -2 -26 -37z m48 17 c0 -5 -9 -10 -20 -10 -11 0 -20 5 -20 10 0 6 9
10 20 10 11 0 20 -4 20 -10z"/>
<path d="M1840 141 c0 -23 5 -41 10 -41 6 0 10 16 10 35 0 24 5 35 15 35 10 0
15 -11 15 -35 0 -19 5 -35 11 -35 6 0 9 16 7 38 -3 34 -6 37 -35 40 -32 3 -33
2 -33 -37z"/>
<path d="M2090 172 c0 -6 9 -8 20 -5 17 5 20 0 20 -26 0 -21 -5 -31 -15 -31
-18 0 -20 16 -2 24 6 3 3 5 -8 3 -34 -4 -24 -32 13 -35 33 -3 33 -3 30 35 -3
33 -7 38 -30 41 -16 2 -28 -1 -28 -6z"/>
<path d="M2170 160 c0 -13 7 -20 20 -20 11 0 20 -7 20 -15 0 -18 -26 -20 -33
-2 -3 7 -6 4 -6 -6 -1 -14 5 -18 27 -15 35 4 39 41 5 46 -13 2 -23 8 -23 14 0
6 10 8 26 4 17 -5 23 -3 19 4 -3 5 -17 10 -31 10 -17 0 -24 -5 -24 -20z"/>
<path d="M2298 140 c-2 -22 0 -40 4 -40 5 0 8 18 8 40 0 22 -2 40 -4 40 -2 0
-6 -18 -8 -40z"/>
<path d="M2334 166 c-12 -32 0 -61 28 -64 19 -2 25 -8 21 -18 -3 -8 0 -14 6
-14 7 0 11 21 11 55 0 55 0 55 -30 55 -17 0 -33 -6 -36 -14z m46 -26 c0 -20
-5 -30 -15 -30 -10 0 -15 10 -15 30 0 20 5 30 15 30 10 0 15 -10 15 -30z"/>
<path d="M2422 143 c3 -34 6 -38 33 -41 29 -3 30 -1 30 38 0 22 -3 40 -7 40
-5 0 -8 -16 -8 -35 0 -24 -5 -35 -15 -35 -13 0 -21 31 -16 63 0 4 -4 7 -10 7
-6 0 -9 -16 -7 -37z"/>
<path d="M2505 151 c-3 -17 -4 -35 0 -41 8 -13 52 -13 60 0 4 7 -2 9 -19 4
-20 -5 -26 -2 -26 10 0 11 9 16 26 16 35 0 29 34 -8 38 -22 3 -27 -2 -33 -27z
m50 9 c3 -5 -3 -10 -14 -10 -12 0 -21 5 -21 10 0 6 6 10 14 10 8 0 18 -4 21
-10z"/>
<path d="M1640 69 c0 -5 5 -7 10 -4 6 3 10 8 10 11 0 2 -4 4 -10 4 -5 0 -10
-5 -10 -11z"/>
</g>
</svg>
