<?xml version="1.0" standalone="no"?>
<!DOCTYPE svg PUBLIC "-//W3C//DTD SVG 20010904//EN"
 "http://www.w3.org/TR/2001/REC-SVG-20010904/DTD/svg10.dtd">
<svg version="1.0" xmlns="http://www.w3.org/2000/svg"
 width="810.000000pt" height="195.000000pt" viewBox="0 0 810.000000 195.000000"
 preserveAspectRatio="xMidYMid meet">
<metadata>
Created by potrace 1.10, written by Peter Selinger 2001-2011
</metadata>
<g transform="translate(0.000000,195.000000) scale(0.100000,-0.100000)"
fill="#6fa8dc" stroke="none">
<path d="M747 1814 c-4 -4 -7 -33 -7 -65 0 -55 -2 -59 -30 -74 -39 -20 -38
-31 5 -56 49 -29 45 -44 -18 -74 -47 -22 -124 -95 -163 -155 l-29 -45 -3 -564
-3 -564 55 -54 56 -53 99 0 c75 0 102 4 111 15 22 26 76 29 120 6 53 -27 130
-29 130 -3 0 23 -19 42 -41 42 -10 0 -39 11 -65 25 -59 32 -85 31 -154 -2 -66
-31 -144 -36 -182 -11 -50 33 -66 74 -69 183 l-4 100 255 5 255 5 3 23 c2 12
-3 24 -11 27 -7 3 -124 7 -258 8 l-244 2 -3 282 -3 283 313 2 313 3 3 23 c3
16 -2 25 -15 28 -10 3 -151 6 -313 7 l-295 2 1 60 c1 37 10 79 22 108 27 59
102 136 166 167 47 24 68 52 59 78 -3 7 0 19 7 27 11 13 50 14 158 6 8 -1 11
-15 10 -43 -3 -41 -1 -44 40 -65 24 -12 59 -33 78 -48 41 -31 100 -118 108
-157 17 -83 15 -79 49 -76 31 3 32 4 29 46 -6 95 -97 221 -198 273 -62 32 -72
64 -22 77 26 6 33 13 33 33 0 19 -6 25 -30 29 -30 5 -30 6 -30 70 l0 65 -141
3 c-77 1 -143 -1 -147 -4z m231 -87 c5 -44 -13 -57 -80 -57 -74 0 -98 12 -98
49 0 15 3 31 7 35 4 4 43 5 88 4 80 -3 80 -3 83 -31z"/>
<path d="M5396 1684 c-3 -9 -6 -134 -6 -279 l0 -264 35 -34 c58 -56 150 -56
143 0 -2 22 -10 30 -38 38 -64 19 -61 5 -59 269 1 169 -2 249 -10 264 -14 26
-56 30 -65 6z"/>
<path d="M2401 1671 c-12 -8 -15 -60 -15 -302 l-1 -292 22 -10 c17 -7 27 -6
39 4 15 12 16 29 11 130 -6 104 -5 118 11 133 27 24 35 21 72 -31 19 -27 39
-52 46 -58 6 -5 39 -47 73 -92 48 -65 67 -83 87 -83 16 0 27 7 33 23 10 25 4
39 -36 84 -15 17 -46 53 -68 79 -22 26 -59 70 -82 98 -24 27 -43 52 -43 56 0
3 47 52 105 109 58 57 105 106 105 108 0 22 -25 43 -50 43 -17 0 -30 -3 -30
-7 0 -5 -30 -39 -66 -78 -36 -38 -82 -89 -102 -112 -59 -68 -65 -61 -57 71 7
109 6 115 -13 125 -25 13 -23 13 -41 2z"/>
<path d="M4857 1663 c-4 -3 -7 -138 -7 -299 0 -288 0 -292 21 -297 53 -14 67
20 59 138 -4 50 -5 93 -3 98 2 4 56 7 120 7 110 0 118 1 151 26 94 72 94 235
-1 307 -35 27 -38 27 -185 27 -82 0 -152 -3 -155 -7z m301 -89 c20 -13 22 -23
22 -90 l0 -75 -32 -13 c-18 -8 -66 -14 -107 -15 -40 -1 -77 -4 -81 -6 -5 -3
-15 1 -22 9 -10 9 -13 39 -12 104 1 49 4 95 8 100 10 16 195 4 224 -14z"/>
<path d="M6825 1610 c-4 -6 -5 -27 -3 -48 3 -36 2 -37 -37 -42 -33 -4 -41 -9
-43 -29 -5 -29 7 -41 49 -50 l32 -6 1 -140 c1 -124 3 -143 21 -166 34 -45 93
-67 167 -60 10 0 20 12 24 27 8 32 -17 53 -64 54 -21 0 -42 9 -58 25 -24 24
-25 28 -22 147 l3 123 52 -3 c66 -5 95 10 91 46 -3 26 -5 27 -76 30 l-73 3 1
37 c1 20 2 43 1 50 -1 15 -57 16 -66 2z"/>
<path d="M2975 1503 c-49 -25 -75 -55 -75 -84 0 -39 32 -44 71 -11 35 29 113
45 176 36 47 -7 89 -44 79 -69 -5 -13 -23 -16 -113 -14 -116 2 -161 -10 -198
-51 -16 -18 -19 -36 -19 -98 1 -75 1 -76 39 -109 37 -32 41 -33 127 -33 80 0
93 3 122 25 34 26 46 24 46 -7 0 -16 6 -19 33 -16 l32 3 0 176 c-1 167 -2 177
-24 205 -39 50 -76 63 -176 63 -63 0 -99 -5 -120 -16z m255 -256 c0 -54 -25
-79 -92 -96 -72 -17 -122 -14 -152 10 -41 32 -33 105 14 122 8 3 63 6 123 6
l107 1 0 -43z"/>
<path d="M3477 1513 c-4 -3 -7 -105 -7 -225 l0 -219 38 3 37 3 5 167 c3 107 9
171 17 179 15 15 92 23 136 15 51 -10 58 -36 55 -209 -2 -150 2 -167 37 -167
34 0 38 17 36 172 -3 190 2 199 97 206 46 3 68 0 87 -12 25 -16 25 -17 25
-179 0 -163 5 -187 37 -187 7 0 22 9 33 20 18 18 19 30 14 157 -7 192 -16 228
-65 259 -32 20 -51 24 -113 24 -70 0 -76 -2 -99 -30 -14 -16 -29 -30 -33 -30
-3 0 -22 14 -41 30 -30 26 -41 30 -95 30 -38 0 -67 -5 -77 -14 -30 -26 -58
-29 -64 -6 -5 20 -45 29 -60 13z"/>
<path d="M4344 1501 c-63 -32 -69 -51 -69 -206 0 -124 2 -143 20 -167 11 -15
25 -28 31 -28 6 0 17 -7 24 -15 10 -12 38 -15 129 -15 l116 0 36 33 c46 42 59
81 59 185 0 187 -44 233 -217 231 -68 -1 -107 -7 -129 -18z m249 -80 c14 -11
17 -34 17 -127 0 -111 -1 -114 -25 -130 -31 -20 -134 -26 -188 -11 -49 13 -57
34 -57 140 0 100 6 122 33 136 31 15 200 10 220 -8z"/>
<path d="M5765 1504 c-48 -25 -75 -55 -75 -85 0 -38 32 -44 69 -13 41 34 70
43 140 40 68 -3 116 -29 116 -62 0 -17 -9 -19 -113 -21 -120 -2 -160 -13 -198
-54 -15 -17 -19 -35 -19 -97 1 -75 1 -75 40 -109 37 -32 41 -33 124 -33 75 0
91 3 122 25 38 25 49 24 49 -7 0 -16 6 -19 33 -16 l32 3 0 175 c0 169 -1 177
-23 205 -40 51 -77 64 -177 65 -63 0 -99 -5 -120 -16z m253 -259 c4 -61 -24
-82 -126 -97 -77 -11 -83 -11 -109 8 -44 33 -44 106 0 124 12 5 69 8 127 7
l105 -2 3 -40z"/>
<path d="M6288 1497 c-35 -30 -48 -58 -48 -107 0 -99 49 -130 206 -130 112 0
124 -6 124 -64 0 -42 -33 -56 -135 -56 -90 0 -91 0 -123 35 -26 27 -37 33 -55
26 -37 -14 -34 -54 9 -95 l37 -36 136 0 c147 1 156 3 194 62 22 35 22 101 0
140 -31 52 -77 68 -203 68 l-110 0 0 45 c0 56 11 61 129 59 76 -2 85 -4 108
-28 25 -27 57 -34 68 -15 16 24 -6 78 -39 98 -29 18 -50 21 -152 21 -109 0
-121 -2 -146 -23z"/>
<path d="M1549 1494 c-9 -11 -13 -37 -10 -80 3 -63 2 -66 -43 -126 -53 -71
-57 -93 -19 -103 30 -7 40 2 99 98 31 50 35 63 29 98 -5 26 -3 45 5 54 18 21
67 18 90 -5 16 -16 18 -24 9 -49 -13 -36 1 -66 73 -160 26 -35 48 -70 48 -78
0 -12 -18 -14 -95 -12 -99 3 -120 -4 -113 -37 3 -17 16 -20 118 -24 109 -5
115 -6 118 -27 4 -30 -28 -37 -132 -29 -88 7 -114 -3 -100 -38 7 -19 7 -19
111 -16 94 2 123 -4 123 -29 0 -34 -19 -39 -119 -34 -81 5 -98 3 -110 -11 -11
-13 -11 -19 0 -32 11 -14 28 -16 101 -12 60 4 91 2 95 -6 4 -6 8 -38 8 -71 0
-33 4 -79 9 -102 l8 -42 -108 -3 -109 -3 -3 -27 -3 -27 113 -3 113 -3 0 -25 0
-25 -113 -3 -113 -3 3 -27 3 -27 113 -3 c111 -3 112 -3 112 -27 0 -32 -29 -39
-128 -31 -86 7 -105 0 -100 -35 3 -24 5 -24 105 -24 56 0 106 -4 111 -10 6 -6
7 -38 3 -75 l-6 -65 -38 -10 c-30 -7 -50 -5 -87 8 -63 23 -97 22 -110 -3 -9
-16 -6 -22 17 -37 40 -26 220 -32 257 -8 l26 17 -1 503 0 504 -64 96 c-65 97
-65 97 -65 169 0 43 -5 77 -12 84 -8 8 -47 12 -109 12 -77 0 -99 -3 -110 -16z"/>
<path d="M752 1444 c-29 -20 -28 -42 2 -50 33 -8 57 -2 69 17 26 41 -25 65
-71 33z"/>
<path d="M671 1373 c-17 -7 -61 -101 -61 -130 0 -18 6 -23 24 -23 20 0 30 13
60 70 33 66 34 70 16 80 -10 5 -20 10 -22 9 -2 0 -9 -3 -17 -6z"/>
<path d="M1278 1173 c-35 -22 -50 -57 -42 -98 7 -39 -15 -80 -49 -89 -12 -3
-35 -17 -51 -30 l-29 -24 11 -123 c5 -67 7 -132 2 -143 -4 -12 -5 -46 -1 -76
6 -52 5 -168 -2 -340 -2 -45 2 -88 9 -108 l13 -32 199 0 c234 0 226 -3 237
107 6 57 3 78 -11 108 -14 30 -15 41 -6 56 16 24 15 104 0 129 -9 14 -9 25 -1
42 21 43 23 88 7 121 -15 28 -15 33 0 62 13 23 16 50 13 113 -4 92 -15 110
-79 143 -37 19 -38 20 -38 78 0 55 -2 61 -35 90 -41 36 -102 42 -147 14z m116
-58 c12 -31 -43 -56 -88 -39 -16 6 -22 35 -9 47 13 14 91 7 97 -8z m5 -124
c12 -16 41 -41 66 -56 l46 -26 -3 -82 -3 -82 -100 -2 c-131 -4 -145 -7 -145
-38 0 -32 28 -39 134 -33 46 3 90 2 98 -3 21 -12 30 -52 18 -83 -9 -26 -10
-26 -129 -26 -96 0 -120 -3 -125 -15 -15 -39 1 -45 125 -45 l119 0 11 -27 c7
-17 7 -38 2 -53 -8 -25 -11 -25 -125 -28 -127 -3 -149 -12 -128 -52 11 -20 18
-21 119 -19 59 1 113 -1 119 -5 7 -4 12 -34 12 -76 0 -53 -4 -69 -16 -74 -9
-3 -78 -6 -154 -6 -170 0 -170 0 -157 96 5 38 8 87 7 109 -3 75 -2 120 5 156
4 23 3 39 -4 43 -15 10 -14 76 3 106 10 20 10 30 0 50 -7 14 -14 59 -17 99 -5
72 -5 74 26 102 17 15 40 29 51 31 11 2 22 12 24 23 7 33 23 45 63 45 30 0 42
-6 58 -29z"/>
<path d="M1237 874 c-10 -10 -9 -66 2 -82 5 -8 17 -12 27 -10 24 4 42 53 28
76 -12 18 -45 27 -57 16z"/>
<path d="M612 1038 c-21 -21 -14 -47 14 -54 34 -9 64 18 48 44 -14 21 -45 27
-62 10z"/>
<path d="M614 922 c-8 -4 -12 -49 -13 -124 l-1 -118 26 -6 c14 -4 30 -2 36 4
12 12 15 222 4 241 -8 12 -35 14 -52 3z"/>
<path d="M2555 862 c-60 -4 -76 -16 -44 -33 40 -21 275 -23 2169 -23 1722 0
2143 4 2183 19 20 8 22 24 4 30 -13 6 -4230 12 -4312 7z"/>
<path d="M3714 617 c-2 -7 -3 -82 -2 -167 l3 -155 55 -6 c114 -14 132 0 145
112 5 43 2 65 -11 92 -19 40 -45 50 -103 41 -45 -7 -55 3 -41 41 7 20 7 31 -1
41 -14 18 -38 18 -45 1z m146 -152 c4 -16 4 -55 1 -85 l-6 -55 -39 -3 c-21 -2
-43 1 -48 6 -10 10 -13 146 -3 163 4 5 25 9 48 7 37 -3 42 -6 47 -33z"/>
<path d="M4222 612 c-4 -9 -6 -86 -4 -170 4 -142 5 -152 23 -152 18 0 19 9 19
164 0 136 -3 165 -15 170 -8 3 -18 -2 -23 -12z"/>
<path d="M6875 620 c-10 -17 20 -44 40 -36 9 3 15 14 13 23 -4 21 -43 30 -53
13z"/>
<path d="M3085 608 c-3 -7 -4 -80 -2 -163 l2 -150 80 -5 c91 -6 115 -3 115 15
0 19 -33 27 -83 20 -54 -8 -69 7 -65 67 l3 43 63 3 c53 3 63 6 60 20 -3 14
-15 17 -60 17 -31 0 -59 3 -63 7 -4 4 -4 27 -1 52 l7 45 67 3 c52 2 67 6 67
18 0 20 -183 28 -190 8z"/>
<path d="M4331 455 c0 -163 1 -166 21 -163 21 3 22 8 22 163 1 158 0 160 -22
163 l-22 3 1 -166z"/>
<path d="M5276 612 c-2 -4 -4 -78 -5 -165 l0 -157 52 -1 c129 -2 170 8 127 31
-13 7 -42 10 -66 7 -23 -2 -47 -1 -53 2 -5 4 -9 29 -8 56 l2 50 60 5 c44 4 60
9 60 20 0 11 -15 16 -62 18 l-61 3 3 44 c2 25 6 49 9 54 3 4 27 6 54 3 50 -4
97 11 87 29 -7 11 -192 12 -199 1z"/>
<path d="M5869 470 c-1 -82 -2 -156 -3 -162 -1 -8 11 -13 29 -13 32 0 32 0 18
67 -7 35 25 52 84 45 70 -8 87 13 87 102 -1 97 -17 110 -131 111 l-83 0 -1
-150z m158 94 c21 -22 25 -32 20 -66 -7 -51 -19 -59 -82 -56 l-50 3 -3 44 c-6
82 0 91 76 100 7 0 25 -11 39 -25z"/>
<path d="M6141 455 l0 -166 25 3 25 3 2 160 2 160 -27 3 -28 3 1 -166z"/>
<path d="M6739 588 c-1 -7 -1 -20 0 -29 1 -9 -5 -22 -14 -29 -14 -11 -14 -15
-1 -29 11 -12 16 -45 18 -111 3 -93 3 -94 31 -101 16 -4 35 -5 43 -2 22 8 16
30 -10 37 -23 6 -25 11 -28 81 -4 89 -2 95 23 95 25 0 25 26 0 33 -12 3 -21
15 -23 33 -3 29 -37 48 -39 22z"/>
<path d="M3433 532 l-113 -3 0 -120 0 -120 28 3 c23 3 27 7 24 33 -4 47 -1
158 4 167 3 4 21 8 40 8 45 0 52 -20 47 -128 -4 -82 -3 -83 19 -80 22 3 23 6
20 83 -4 118 0 127 51 123 l42 -3 -1 -103 0 -103 25 3 c26 3 26 4 26 97 0 116
-15 150 -67 148 -18 -1 -84 -3 -145 -5z"/>
<path d="M4004 533 c-24 -4 -39 -42 -24 -57 6 -6 17 -3 29 8 12 11 31 16 53
14 l33 -3 1 -70 c2 -102 0 -107 -49 -103 -35 2 -43 7 -45 25 -2 16 4 26 22 35
44 20 29 42 -20 29 -42 -11 -60 -51 -40 -89 18 -34 39 -42 98 -35 89 9 83 1
83 108 0 85 -3 99 -22 121 -21 24 -58 29 -119 17z"/>
<path d="M4456 515 c-26 -28 -26 -45 -2 -45 8 0 19 7 26 15 9 11 27 15 54 13
34 -2 42 -7 44 -26 2 -13 -1 -29 -7 -36 -8 -9 -8 -22 -1 -40 15 -41 -3 -76
-39 -76 -44 0 -61 10 -61 35 0 18 7 24 35 29 52 10 53 26 1 26 -66 0 -76 -7
-76 -50 0 -62 32 -77 150 -68 l35 3 -4 110 c-1 61 -6 114 -11 118 -4 5 -32 11
-63 14 -51 5 -57 4 -81 -22z"/>
<path d="M4699 519 c-17 -32 -18 -177 -1 -206 11 -20 21 -23 77 -23 91 0 87
-29 -5 -40 -55 -6 -68 -34 -20 -43 41 -9 84 1 109 25 19 17 21 30 21 158 l0
140 -32 0 c-18 0 -56 3 -84 6 -48 6 -53 5 -65 -17z m131 -45 c12 -31 13 -124
1 -142 -5 -9 -24 -12 -52 -10 l-44 3 -3 74 c-2 41 -1 80 2 88 3 8 21 13 46 13
34 0 42 -4 50 -26z"/>
<path d="M4980 529 c-36 -15 -40 -25 -40 -120 0 -101 9 -114 84 -122 81 -8
120 19 95 66 -12 20 -12 20 -31 -6 -14 -20 -28 -27 -53 -27 -38 0 -52 14 -57
55 l-3 30 80 5 80 5 -3 45 c-4 57 -29 80 -86 79 -22 0 -52 -5 -66 -10z m105
-59 c0 -23 -4 -25 -52 -28 -46 -3 -53 -1 -53 15 0 30 22 44 65 41 35 -3 40 -6
40 -28z"/>
<path d="M5575 531 l-60 -6 0 -115 0 -115 27 -3 27 -3 3 103 3 103 43 3 42 3
1 -63 c1 -35 1 -82 -1 -106 -2 -42 -1 -43 27 -40 l28 3 -1 103 c-2 135 -11
144 -139 133z"/>
<path d="M6305 531 c-34 -5 -40 -10 -43 -33 -2 -20 1 -28 13 -28 8 0 18 7 21
15 4 10 20 15 45 15 32 0 40 -4 44 -23 4 -12 1 -35 -4 -51 -7 -16 -8 -34 -3
-43 5 -8 7 -26 4 -39 -4 -22 -9 -25 -46 -22 -36 3 -41 6 -44 31 -3 23 1 28 27
33 36 8 40 20 9 26 -39 7 -59 -3 -73 -35 -11 -26 -11 -36 1 -58 15 -31 44 -38
124 -29 l55 5 2 80 c2 91 -10 141 -37 155 -20 11 -31 11 -95 1z"/>
<path d="M6509 529 c-18 -11 -19 -93 -1 -111 7 -7 30 -12 52 -11 32 2 43 -3
56 -22 12 -18 13 -28 4 -44 -15 -29 -75 -29 -90 -1 -19 36 -45 14 -33 -28 4
-15 16 -21 54 -24 72 -7 93 0 113 36 31 58 -1 103 -81 114 -43 6 -48 10 -48
32 0 21 5 26 34 28 18 2 38 -1 44 -7 6 -6 19 -11 29 -11 24 0 24 36 1 49 -22
11 -116 12 -134 0z"/>
<path d="M7009 521 c-21 -17 -24 -29 -27 -98 -4 -112 6 -127 88 -133 l65 -5
-3 -38 c-4 -40 18 -61 41 -38 12 12 19 309 7 315 -3 2 -37 6 -76 10 -61 6 -74
4 -95 -13z m121 -112 l0 -90 -47 3 -48 3 -3 65 c-5 100 0 110 53 110 l45 0 0
-91z"/>
<path d="M7403 523 c-3 -9 -7 -57 -7 -107 l-1 -91 -36 -3 c-21 -2 -40 2 -47
10 -12 15 -19 149 -8 166 11 18 -2 32 -30 32 -24 0 -24 -1 -24 -92 0 -55 6
-103 13 -118 14 -28 53 -38 132 -32 l50 4 -1 113 c-1 62 -4 118 -8 124 -10 16
-26 14 -33 -6z"/>
<path d="M7531 521 c-20 -20 -22 -31 -26 -136 -3 -80 41 -113 132 -98 43 7 77
41 61 61 -14 16 -21 15 -49 -8 -16 -15 -34 -20 -59 -18 -34 3 -35 4 -35 47 l0
44 73 -2 72 -2 0 44 c0 58 -23 79 -94 85 -45 4 -57 1 -75 -17z m117 -53 c3
-27 1 -28 -37 -28 -23 0 -44 0 -48 -1 -11 0 -16 29 -9 47 4 11 18 14 48 12 39
-3 43 -6 46 -30z"/>
<path d="M6887 523 c-2 -4 -5 -58 -6 -119 -1 -91 1 -113 13 -117 24 -10 28 7
29 126 0 94 -2 112 -15 115 -9 2 -18 -1 -21 -5z"/>
</g>
</svg>
