<svg id="visual" viewBox="0 0 900 600" width="900" height="600" xmlns="http://www.w3.org/2000/svg" xmlns:xlink="http://www.w3.org/1999/xlink" version="1.1"><rect x="0" y="0" width="900" height="600" fill="#001220"></rect><defs><linearGradient id="grad1_0" x1="33.3%" y1="100%" x2="100%" y2="0%"><stop offset="20%" stop-color="#001220" stop-opacity="1"></stop><stop offset="80%" stop-color="#001220" stop-opacity="1"></stop></linearGradient></defs><defs><linearGradient id="grad2_0" x1="0%" y1="100%" x2="66.7%" y2="0%"><stop offset="20%" stop-color="#001220" stop-opacity="1"></stop><stop offset="80%" stop-color="#001220" stop-opacity="1"></stop></linearGradient></defs><g transform="translate(900, 600)"><path d="M-405.6 0C-405.1 -19.3 -404.5 -38.6 -401.5 -57.7C-398.5 -76.9 -393 -95.9 -382.8 -112.4C-372.6 -129 -357.7 -143 -345.7 -157.9C-333.6 -172.7 -324.6 -188.2 -312.9 -201.1C-301.3 -214 -287.1 -224.3 -280.4 -243C-273.7 -261.6 -274.6 -288.5 -263.9 -304.6C-253.3 -320.7 -231.1 -325.9 -209.8 -326.4C-188.4 -326.9 -167.9 -322.5 -152.9 -334.7C-137.9 -347 -128.4 -375.8 -112.4 -382.8C-96.4 -389.8 -73.8 -375 -53.9 -375.1C-34.1 -375.3 -17.1 -390.5 0 -405.6L0 0Z" fill="#f5f5f5"></path></g><g transform="translate(0, 0)"><path d="M405.6 0C396.1 18.9 386.6 37.8 376.1 54.1C365.6 70.4 354.1 84.2 356.9 104.8C359.8 125.5 377.1 153 369 168.5C360.9 184 327.4 187.5 311.3 200C295.1 212.6 296.4 234.3 287.9 249.5C279.5 264.7 261.4 273.6 246.2 284.2C231 294.8 218.7 307.1 204.9 318.8C191.1 330.6 176 341.6 158.7 347.5C141.4 353.3 122 353.9 104 354.1C85.9 354.2 69.2 353.8 52.1 362.3C35 370.8 17.5 388.2 0 405.6L0 0Z" fill="#f5f5f5"></path></g></svg>